HIERARCHY
ROOT Root
{
  OFFSET 0.0 0.0 0.0
  CHANNELS 6 Xposition Yposition Zposition Zrotation Yrotation Xrotation
  JOINT Hips
  {
    OFFSET 0.0 100.0 0.0
    CHANNELS 6 Xposition Yposition Zposition Zrotation Yrotation Xrotation
    JOINT Spine1
    {
      OFFSET -0.013727 5.003763 -0.053727
      CHANNELS 3 Zrotation Yrotation Xrotation
      JOINT Spine2
      {
        OFFSET -0.0 7.125301 -0.029825
        CHANNELS 3 Zrotation Yrotation Xrotation
        JOINT Chest
        {
          OFFSET -1e-06 7.550063 -0.815971
          CHANNELS 3 Zrotation Yrotation Xrotation
          JOINT Neck1
          {
            OFFSET -0.181677 26.311295 -0.553348
            CHANNELS 3 Zrotation Yrotation Xrotation
            JOINT Neck2
            {
              OFFSET -3e-06 7.709397 2.302585
              CHANNELS 3 Zrotation Yrotation Xrotation
              JOINT Head
              {
                OFFSET -5e-06 6.128916 1.953709
                CHANNELS 3 Zrotation Yrotation Xrotation
                JOINT HeadEnd
                {
                  OFFSET 0.003598 16.065403 -1.835379
                  CHANNELS 3 Zrotation Yrotation Xrotation
                }
                JOINT Jaw
                {
                  OFFSET 0.002637 0.475592 3.094941
                  CHANNELS 3 Zrotation Yrotation Xrotation
                }
                JOINT LeftEye
                {
                  OFFSET 3.206381 5.380205 7.586883
                  CHANNELS 3 Zrotation Yrotation Xrotation
                }
                JOINT RightEye
                {
                  OFFSET -3.22244 5.361869 7.558234
                  CHANNELS 3 Zrotation Yrotation Xrotation
                }
              }
            }
          }
          JOINT LeftShoulder
          {
            OFFSET 1.621652 23.237164 5.113413
            CHANNELS 3 Zrotation Yrotation Xrotation
            JOINT LeftArm
            {
              OFFSET 14.919846 2e-06 -5.502326
              CHANNELS 3 Zrotation Yrotation Xrotation
              JOINT LeftForeArm
              {
                OFFSET 28.739307 0.0 -0.002588
                CHANNELS 3 Zrotation Yrotation Xrotation
                JOINT LeftHand
                {
                  OFFSET 27.093981 -1e-06 0.002609
                  CHANNELS 3 Zrotation Yrotation Xrotation
                  JOINT LeftHandThumb1
                  {
                    OFFSET 2.276482 -1.392045 3.191413
                    CHANNELS 3 Zrotation Yrotation Xrotation
                    JOINT LeftHandThumb2
                    {
                      OFFSET 4.012836 -1.828127 1.641654
                      CHANNELS 3 Zrotation Yrotation Xrotation
                      JOINT LeftHandThumb3
                      {
                        OFFSET 2.798515 0.0 -3e-06
                        CHANNELS 3 Zrotation Yrotation Xrotation
                        JOINT LeftHandThumbEnd
                        {
                          OFFSET 3.180793 -4e-06 4e-06
                          CHANNELS 3 Zrotation Yrotation Xrotation
                        }
                      }
                    }
                  }
                  JOINT LeftHandIndex1
                  {
                    OFFSET 3.247555 -0.531998 2.296169
                    CHANNELS 3 Zrotation Yrotation Xrotation
                    JOINT LeftHandIndex2
                    {
                      OFFSET 6.364578 0.01206 0.1786
                      CHANNELS 3 Zrotation Yrotation Xrotation
                      JOINT LeftHandIndex3
                      {
                        OFFSET 3.662364 0.0 0.0
                        CHANNELS 3 Zrotation Yrotation Xrotation
                        JOINT LeftHandIndex4
                        {
                          OFFSET 2.329242 4e-06 4e-06
                          CHANNELS 3 Zrotation Yrotation Xrotation
                          JOINT LeftHandIndexEnd
                          {
                            OFFSET 2.759615 -0.180537 -0.113024
                            CHANNELS 3 Zrotation Yrotation Xrotation
                          }
                        }
                      }
                    }
                  }
                  JOINT LeftHandMiddle1
                  {
                    OFFSET 3.163495 0.240981 1.000332
                    CHANNELS 3 Zrotation Yrotation Xrotation
                    JOINT LeftHandMiddle2
                    {
                      OFFSET 6.19078 -0.259278 -1.002548
                      CHANNELS 3 Zrotation Yrotation Xrotation
                      JOINT LeftHandMiddle3
                      {
                        OFFSET 4.35652 -4e-06 -1e-06
                        CHANNELS 3 Zrotation Yrotation Xrotation
                        JOINT LeftHandMiddle4
                        {
                          OFFSET 2.996877 -8e-06 0.0
                          CHANNELS 3 Zrotation Yrotation Xrotation
                          JOINT LeftHandMiddleEnd
                          {
                            OFFSET 2.304287 -0.294569 -0.031741
                            CHANNELS 3 Zrotation Yrotation Xrotation
                          }
                        }
                      }
                    }
                  }
                  JOINT LeftHandRing1
                  {
                    OFFSET 2.882643 -0.053652 -0.322543
                    CHANNELS 3 Zrotation Yrotation Xrotation
                    JOINT LeftHandRing2
                    {
                      OFFSET 5.854541 -0.486202 -1.373841
                      CHANNELS 3 Zrotation Yrotation Xrotation
                      JOINT LeftHandRing3
                      {
                        OFFSET 4.350578 0.0 3e-06
                        CHANNELS 3 Zrotation Yrotation Xrotation
                        JOINT LeftHandRing4
                        {
                          OFFSET 2.651321 7e-06 2e-06
                          CHANNELS 3 Zrotation Yrotation Xrotation
                          JOINT LeftHandRingEnd
                          {
                            OFFSET 1.936105 0.077687 -7.1e-05
                            CHANNELS 3 Zrotation Yrotation Xrotation
                          }
                        }
                      }
                    }
                  }
                  JOINT LeftHandPinky1
                  {
                    OFFSET 2.8655 -0.310005 -1.600378
                    CHANNELS 3 Zrotation Yrotation Xrotation
                    JOINT LeftHandPinky2
                    {
                      OFFSET 5.087849 -1.331141 -1.77123
                      CHANNELS 3 Zrotation Yrotation Xrotation
                      JOINT LeftHandPinky3
                      {
                        OFFSET 3.070974 4e-06 0.0
                        CHANNELS 3 Zrotation Yrotation Xrotation
                        JOINT LeftHandPinky4
                        {
                          OFFSET 1.549672 0.0 1e-06
                          CHANNELS 3 Zrotation Yrotation Xrotation
                          JOINT LeftHandPinkyEnd
                          {
                            OFFSET 1.944893 -0.157802 0.057219
                            CHANNELS 3 Zrotation Yrotation Xrotation
                          }
                        }
                      }
                    }
                  }
                }
              }
            }
          }
          JOINT RightShoulder
          {
            OFFSET -1.380118 23.180309 5.214158
            CHANNELS 3 Zrotation Yrotation Xrotation
            JOINT RightArm
            {
              OFFSET -15.037196 1.2e-05 -5.545604
              CHANNELS 3 Zrotation Yrotation Xrotation
              JOINT RightForeArm
              {
                OFFSET -28.736639 2e-06 -0.002597
                CHANNELS 3 Zrotation Yrotation Xrotation
                JOINT RightHand
                {
                  OFFSET -27.133619 -0.0 0.002613
                  CHANNELS 3 Zrotation Yrotation Xrotation
                  JOINT RightHandThumb1
                  {
                    OFFSET -2.274032 -1.383988 3.163127
                    CHANNELS 3 Zrotation Yrotation Xrotation
                    JOINT RightHandThumb2
                    {
                      OFFSET -4.011429 -1.827466 1.640914
                      CHANNELS 3 Zrotation Yrotation Xrotation
                      JOINT RightHandThumb3
                      {
                        OFFSET -2.794935 -4e-06 -3e-06
                        CHANNELS 3 Zrotation Yrotation Xrotation
                        JOINT RightHandThumbEnd
                        {
                          OFFSET -3.183852 4e-06 1e-06
                          CHANNELS 3 Zrotation Yrotation Xrotation
                        }
                      }
                    }
                  }
                  JOINT RightHandIndex1
                  {
                    OFFSET -3.253266 -0.520057 2.282866
                    CHANNELS 3 Zrotation Yrotation Xrotation
                    JOINT RightHandIndex2
                    {
                      OFFSET -6.341917 0.012471 0.178266
                      CHANNELS 3 Zrotation Yrotation Xrotation
                      JOINT RightHandIndex3
                      {
                        OFFSET -3.654871 -8e-06 -0.0
                        CHANNELS 3 Zrotation Yrotation Xrotation
                        JOINT RightHandIndex4
                        {
                          OFFSET -2.327586 0.0 1e-06
                          CHANNELS 3 Zrotation Yrotation Xrotation
                          JOINT RightHandIndexEnd
                          {
                            OFFSET -2.76179 -0.180656 -0.113078
                            CHANNELS 3 Zrotation Yrotation Xrotation
                          }
                        }
                      }
                    }
                  }
                  JOINT RightHandMiddle1
                  {
                    OFFSET -3.168106 0.246593 1.00103
                    CHANNELS 3 Zrotation Yrotation Xrotation
                    JOINT RightHandMiddle2
                    {
                      OFFSET -6.180828 -0.258836 -1.000895
                      CHANNELS 3 Zrotation Yrotation Xrotation
                      JOINT RightHandMiddle3
                      {
                        OFFSET -4.348901 0.0 -0.0
                        CHANNELS 3 Zrotation Yrotation Xrotation
                        JOINT RightHandMiddle4
                        {
                          OFFSET -3.00024 -4e-06 -2e-06
                          CHANNELS 3 Zrotation Yrotation Xrotation
                          JOINT RightHandMiddleEnd
                          {
                            OFFSET -2.30252 -0.29437 -0.031706
                            CHANNELS 3 Zrotation Yrotation Xrotation
                          }
                        }
                      }
                    }
                  }
                  JOINT RightHandRing1
                  {
                    OFFSET -2.88569 -0.067952 -0.308858
                    CHANNELS 3 Zrotation Yrotation Xrotation
                    JOINT RightHandRing2
                    {
                      OFFSET -5.854198 -0.48613 -1.373731
                      CHANNELS 3 Zrotation Yrotation Xrotation
                      JOINT RightHandRing3
                      {
                        OFFSET -4.33881 -4e-06 -0.0
                        CHANNELS 3 Zrotation Yrotation Xrotation
                        JOINT RightHandRing4
                        {
                          OFFSET -2.654903 -4e-06 4e-06
                          CHANNELS 3 Zrotation Yrotation Xrotation
                          JOINT RightHandRingEnd
                          {
                            OFFSET -1.933568 0.077527 -5.2e-05
                            CHANNELS 3 Zrotation Yrotation Xrotation
                          }
                        }
                      }
                    }
                  }
                  JOINT RightHandPinky1
                  {
                    OFFSET -2.866425 -0.342796 -1.584145
                    CHANNELS 3 Zrotation Yrotation Xrotation
                    JOINT RightHandPinky2
                    {
                      OFFSET -5.091371 -1.332055 -1.772385
                      CHANNELS 3 Zrotation Yrotation Xrotation
                      JOINT RightHandPinky3
                      {
                        OFFSET -3.062664 -4e-06 1e-06
                        CHANNELS 3 Zrotation Yrotation Xrotation
                        JOINT RightHandPinky4
                        {
                          OFFSET -1.546529 4e-06 -2e-06
                          CHANNELS 3 Zrotation Yrotation Xrotation
                          JOINT RightHandPinkyEnd
                          {
                            OFFSET -1.945119 -0.157718 0.057211
                            CHANNELS 3 Zrotation Yrotation Xrotation
                          }
                        }
                      }
                    }
                  }
                }
              }
            }
          }
        }
      }
    }
    JOINT LeftLeg
    {
      OFFSET 10.043214 -8.434526 2.595655
      CHANNELS 3 Zrotation Yrotation Xrotation
      JOINT LeftShin
      {
        OFFSET -1e-06 -43.221752 -0.802913
        CHANNELS 3 Zrotation Yrotation Xrotation
        JOINT LeftFoot
        {
          OFFSET 1e-06 -42.155094 -3.481523
          CHANNELS 3 Zrotation Yrotation Xrotation
          JOINT LeftToeBase
          {
            OFFSET 0.0 -5.059472 13.231529
            CHANNELS 3 Zrotation Yrotation Xrotation
            JOINT LeftToeEnd
            {
              OFFSET -0.009607 -1.647619 6.513017
              CHANNELS 3 Zrotation Yrotation Xrotation
            }
          }
        }
      }
    }
    JOINT RightLeg
    {
      OFFSET -10.047278 -8.29526 2.620317
      CHANNELS 3 Zrotation Yrotation Xrotation
      JOINT RightShin
      {
        OFFSET 1e-06 -43.362206 -0.805556
        CHANNELS 3 Zrotation Yrotation Xrotation
        JOINT RightFoot
        {
          OFFSET 2e-06 -42.117393 -3.478398
          CHANNELS 3 Zrotation Yrotation Xrotation
          JOINT RightToeBase
          {
            OFFSET -0.0 -5.079609 13.284196
            CHANNELS 3 Zrotation Yrotation Xrotation
            JOINT RightToeEnd
            {
              OFFSET 0.009532 -1.634378 6.460591
              CHANNELS 3 Zrotation Yrotation Xrotation
            }
          }
        }
      }
    }
  }
}
MOTION
Frames: 5
Frame Time: 0.03333333333333333
0.0 0.0 0.0 0.0 -0.0 0.0 0.868133 100.263527 3.256004 0.385769 -0.641791 2.131884 1.219611 0.317775 -4.86262 -0.22214 0.859156 -7.01755 -1.882849 -0.747913 6.36892 -3.460625 1.498285 -32.946606 2.342221 4.024992 -3.68196 4.866752 -1.865852 -14.041787 7.7e-05 -2.2e-05 5e-06 -0.109779 -0.080547 -0.019527 0.457437 -3.618508 -9.536789 -0.682275 3.484656 -9.667624 22.488056 -11.793981 9.718296 44.184677 12.151769 -85.161667 1.830692 -14.851065 -1.336102 25.271296 3.144231 -44.118626 -5.882113 9.861292 0.70259 -10.93688 -0.360571 7.156211 -2e-06 8.774828 -2e-06 -16.951042 18.222681 5.407497 -1.844035 2.498506 -2.507278 -10.16361 4.67895 4.621114 -20.97604 4e-06 3e-06 -21.226305 2.451705 -3.594006 0.0 -6e-06 -1e-06 -1.362683 2.240799 -0.746322 -21.33493 0.584917 3.008327 -13.821223 2e-06 0.0 -23.887188 -0.249071 -0.839487 -58.273037 3.09998 -0.741503 -0.294024 1.679687 0.833258 -14.218221 0.09322 1.300583 -34.212074 -0.287551 0.967166 -20.03323 0.964545 1.212841 -1e-06 0.0 0.0 -3.440392 0.788234 0.501657 -15.9282 -3.167305 2.999711 -6.338831 2e-06 0.0 -18.123463 3.648189 -4.905676 -3e-06 -0.0 -2e-06 -26.435148 19.629442 5.440381 -47.521862 -11.917668 -74.214989 -0.611351 18.938667 -0.830258 -12.244792 -9.951277 15.322179 2.243541 -5.255036 -3.180157 14.282896 -0.826593 6.952503 -4e-06 -12.690603 -1e-06 16.214813 -16.308517 2.060954 1.665666 -1.955921 -2.878299 4.727801 -4.170585 4.993922 11.020529 5e-06 1e-06 12.109054 -3.735713 -2.866781 -0.0 -1e-06 -0.0 1.291986 -1.928549 -1.498089 14.800136 0.567471 3.865609 14.242576 -1.341735 -6.660654 19.631977 0.143927 -0.648241 49.539413 -0.851922 -6.832346 0.353029 -1.51115 -0.03194 20.222801 3.684312 2.316632 18.787279 7e-06 2e-06 10.751633 -0.479867 1.397907 -0.0 -1e-06 0.0 3.273808 0.305948 -0.58011 21.486828 11.830377 2.266135 8.162931 3e-06 -0.0 18.399092 -3.798982 -4.940574 4e-06 0.0 -1e-06 1.470534 8.023005 0.698691 0.01352 -0.195281 1.885456 -3.103206 -4.598178 -2.572876 1.646346 -1.961688 -0.903859 -0.0 0.0 2e-06 -2.948228 -4.251494 -0.231198 -0.017286 -0.15771 4.290796 4.075421 -2.639163 -6.448778 -1.410672 1.16796 -0.658629 -0.0 -0.0 -1e-06 
0.0 0.0 0.0 0.0 -0.0 0.0 0.908705 100.27343 3.14252 0.361487 -0.639039 2.130396 1.234499 0.3307 -4.819779 -0.215639 0.851094 -6.998983 -1.850464 -0.733226 6.386879 -3.320368 1.498305 -33.169807 2.334318 4.038704 -3.694213 4.907418 -1.922988 -13.897615 7.7e-05 -2.2e-05 6e-06 -0.113433 -0.080168 -0.025585 0.462713 -3.615723 -9.562205 -0.694908 3.482723 -9.696834 22.447435 -11.827775 9.69327 44.088436 12.2695 -85.144096 1.893938 -15.443225 -1.394251 25.477409 3.418199 -44.016029 -5.882109 9.861288 0.702592 -10.936877 -0.360573 7.156208 -1e-06 8.774828 -1e-06 -16.989866 18.192417 5.378814 -1.844032 2.498506 -2.507278 -10.163604 4.678947 4.621108 -20.97603 -1e-06 4e-06 -21.226294 2.4517 -3.593999 0.0 -6e-06 -2e-06 -1.362682 2.240798 -0.746324 -21.334921 0.584912 3.008326 -13.821218 -1e-06 1e-06 -23.887178 -0.249075 -0.839484 -58.254539 3.10449 -0.751512 -0.294026 1.679687 0.833256 -14.218215 0.093216 1.300581 -34.212067 -0.287559 0.967169 -20.033226 0.964538 1.21284 -1e-06 1e-06 -1e-06 -3.44039 0.788235 0.501656 -15.928189 -3.167308 2.999711 -6.338828 0.0 -0.0 -18.123453 3.648185 -4.905671 -3e-06 -0.0 -1e-06 -26.409096 19.574919 5.355068 -47.279823 -11.902608 -74.578598 -0.739313 19.654835 -0.870606 -12.218986 -10.362891 15.160875 2.243543 -5.255038 -3.180159 14.2829 -0.826594 6.952506 -3e-06 -12.690608 -0.0 16.248251 -16.303402 2.070828 1.665667 -1.955922 -2.878299 4.727802 -4.170588 4.993925 11.020534 4e-06 0.0 12.109058 -3.735717 -2.866784 1e-06 -0.0 -0.0 1.291986 -1.92855 -1.49809 14.800136 0.567469 3.86561 14.242579 -1.341737 -6.660658 19.631975 0.143926 -0.648243 49.62323 -0.871611 -6.842802 0.353029 -1.511151 -0.031939 20.222803 3.684312 2.316633 18.787283 5e-06 1e-06 10.751634 -0.479868 1.397906 1e-06 -1e-06 -0.0 3.273809 0.305948 -0.580111 21.486826 11.83038 2.266135 8.162932 2e-06 0.0 18.399088 -3.798986 -4.940577 4e-06 0.0 -1e-06 1.440195 7.966855 0.585869 0.011355 -0.192553 1.952072 -3.030436 -4.592081 -2.560024 1.642861 -1.972474 -0.848047 -0.0 0.0 2e-06 -2.94342 -4.172194 -0.291817 -0.017323 -0.163819 4.255795 4.061376 -2.663244 -6.317712 -1.410167 1.16486 -0.628721 -0.0 -0.0 -1e-06 
0.0 0.0 0.0 0.0 -0.0 0.0 0.950086 100.284431 3.04389 0.348977 -0.648387 2.118893 1.241068 0.35493 -4.783181 -0.206789 0.856569 -6.978376 -1.83142 -0.72476 6.398929 -3.182263 1.479215 -33.399693 2.342711 4.044711 -3.707745 4.959111 -1.969725 -13.835013 7.7e-05 -2.3e-05 7e-06 -0.116935 -0.080391 -0.032161 0.467912 -3.613886 -9.591981 -0.707314 3.480857 -9.731708 22.427975 -11.851303 9.679017 43.87125 12.377556 -85.114967 1.966979 -16.147985 -1.443256 25.730206 3.761339 -43.998974 -5.882114 9.861294 0.702593 -10.936882 -0.360572 7.15621 -2e-06 8.774833 -2e-06 -17.036518 18.142696 5.345756 -1.844034 2.498507 -2.507277 -10.163611 4.678952 4.621112 -20.976044 2e-06 2e-06 -21.226309 2.451704 -3.594007 0.0 -5e-06 -2e-06 -1.362685 2.240802 -0.746324 -21.334938 0.584916 3.008322 -13.821229 1e-06 -0.0 -23.887199 -0.249074 -0.839489 -58.22694 3.099681 -0.765679 -0.294025 1.679688 0.833257 -14.218224 0.093219 1.30058 -34.21209 -0.287557 0.967163 -20.033236 0.964539 1.21284 -2e-06 0.0 0.0 -3.440393 0.788235 0.501657 -15.928203 -3.167308 2.999707 -6.338833 0.0 -1e-06 -18.123468 3.648189 -4.905676 -3e-06 0.0 -2e-06 -26.375648 19.510981 5.259368 -47.041271 -11.806921 -75.03231 -0.893523 20.417135 -0.906758 -12.270923 -10.778022 15.007229 2.243543 -5.255041 -3.180159 14.282909 -0.826594 6.952509 -3e-06 -12.690615 -1e-06 16.304495 -16.284473 2.082434 1.665668 -1.955923 -2.8783 4.727805 -4.17059 4.993928 11.020538 4e-06 1e-06 12.109062 -3.735717 -2.866784 1e-06 -0.0 -0.0 1.291987 -1.92855 -1.49809 14.800148 0.56747 3.865612 14.242585 -1.341737 -6.660659 19.631987 0.143925 -0.648241 49.740711 -0.883925 -6.84877 0.35303 -1.511152 -0.03194 20.222815 3.684314 2.316635 18.787292 6e-06 2e-06 10.751641 -0.479869 1.397908 1e-06 0.0 0.0 3.27381 0.305948 -0.580111 21.486843 11.830386 2.266138 8.162938 2e-06 -0.0 18.399103 -3.798987 -4.940578 4e-06 1e-06 -1e-06 1.407141 7.905803 0.522472 0.010625 -0.184509 1.960588 -2.96527 -4.575269 -2.527673 1.640796 -1.981894 -0.815262 0.0 0.0 2e-06 -2.953716 -4.087309 -0.336085 -0.020183 -0.166691 4.223784 4.069422 -2.677566 -6.176638 -1.409954 1.163202 -0.601564 -0.0 -0.0 -1e-06 
0.0 0.0 0.0 0.0 -0.0 0.0 0.993973 100.294731 2.959771 0.343137 -0.678537 2.09565 1.242072 0.386564 -4.74873 -0.198952 0.868134 -6.961417 -1.810509 -0.701318 6.409375 -3.015759 1.434371 -33.614765 2.35596 4.062839 -3.72375 4.988039 -2.008935 -13.776252 7.7e-05 -2.2e-05 7e-06 -0.120932 -0.07955 -0.037068 0.472712 -3.610404 -9.623385 -0.720207 3.47994 -9.767238 22.41552 -11.894691 9.659528 43.497478 12.441308 -85.108925 2.075777 -17.062859 -1.516081 26.03693 4.125546 -44.011692 -5.882113 9.861293 0.702592 -10.936881 -0.360573 7.156209 -1e-06 8.774831 -1e-06 -17.081083 18.146633 5.340759 -1.844034 2.498507 -2.507279 -10.163607 4.67895 4.621111 -20.97604 -1e-06 3e-06 -21.226303 2.451702 -3.594004 1e-06 -6e-06 0.0 -1.362681 2.2408 -0.746323 -21.33493 0.584913 3.008327 -13.821224 0.0 2e-06 -23.887188 -0.249074 -0.839486 -58.214378 3.092904 -0.785668 -0.294025 1.679688 0.833256 -14.218222 0.093217 1.300581 -34.212082 -0.287558 0.96717 -20.033232 0.96454 1.212842 -1e-06 1e-06 0.0 -3.440391 0.788235 0.501655 -15.928201 -3.16731 2.99971 -6.338831 0.0 1e-06 -18.123459 3.648189 -4.905675 -3e-06 -0.0 -1e-06 -26.295912 19.431398 5.169487 -46.85096 -11.607428 -75.541893 -1.108946 21.185141 -0.987747 -12.347142 -11.130867 14.961926 2.243541 -5.255039 -3.180158 14.282896 -0.826594 6.952507 -3e-06 -12.690609 -0.0 16.363424 -16.25061 2.107309 1.665666 -1.955922 -2.878299 4.7278 -4.170588 4.993927 11.02053 4e-06 0.0 12.109056 -3.735716 -2.866784 1e-06 -0.0 -0.0 1.291986 -1.92855 -1.498091 14.800138 0.56747 3.86561 14.242577 -1.341736 -6.660658 19.631975 0.143926 -0.648243 49.864166 -0.894822 -6.832834 0.353028 -1.511151 -0.03194 20.222801 3.684313 2.316634 18.787283 5e-06 1e-06 10.751633 -0.479869 1.397907 -0.0 -0.0 0.0 3.273808 0.305947 -0.580111 21.486822 11.83038 2.266138 8.16293 2e-06 1e-06 18.399088 -3.798985 -4.940575 4e-06 0.0 -0.0 1.373995 7.847117 0.499221 0.005364 -0.178886 1.935946 -2.900523 -4.523538 -2.484207 1.637732 -2.001389 -0.788681 0.0 0.0 2e-06 -2.975207 -3.985745 -0.367872 -0.022681 -0.178224 4.201986 4.081264 -2.672522 -6.048407 -1.408661 1.159299 -0.589075 -0.0 -0.0 -1e-06 
0.0 0.0 0.0 0.0 -0.0 0.0 1.039611 100.296494 2.878813 0.34145 -0.696035 2.056637 1.234303 0.423959 -4.721567 -0.195899 0.871411 -6.943779 -1.776757 -0.663949 6.433369 -2.835164 1.385809 -33.800964 2.345893 4.068869 -3.747355 4.985539 -2.022818 -13.703045 7.7e-05 -2.2e-05 7e-06 -0.123084 -0.075975 -0.039311 0.481312 -3.604069 -9.65446 -0.733257 3.48141 -9.800624 22.376696 -11.958038 9.660899 42.971687 12.482882 -85.190758 2.193305 -18.262716 -1.623087 26.325504 4.457317 -43.746525 -5.882107 9.861284 0.702591 -10.936872 -0.360573 7.156205 -1e-06 8.774824 -2e-06 -17.1084 18.199476 5.352954 -1.844032 2.498504 -2.507276 -10.163602 4.678946 4.621109 -20.976025 -0.0 4e-06 -21.22629 2.4517 -3.594001 1e-06 -6e-06 0.0 -1.362682 2.240798 -0.746323 -21.334913 0.584913 3.008325 -13.821213 1e-06 2e-06 -23.887169 -0.249074 -0.839483 -58.178719 3.092844 -0.805382 -0.294025 1.679687 0.833256 -14.21821 0.093217 1.300582 -34.212051 -0.287559 0.96717 -20.033215 0.964539 1.212842 -0.0 2e-06 1e-06 -3.440389 0.788233 0.501655 -15.928187 -3.167306 2.999708 -6.338827 0.0 1e-06 -18.123449 3.648187 -4.905673 -3e-06 -0.0 -1e-06 -26.180275 19.308331 5.048509 -46.660847 -11.26817 -76.049942 -1.381453 22.06937 -1.1285 -12.40624 -11.455377 15.083918 2.243541 -5.255036 -3.180157 14.282894 -0.826593 6.952503 -4e-06 -12.690603 1e-06 16.427128 -16.232492 2.13333 1.665666 -1.955921 -2.878299 4.7278 -4.170586 4.993924 11.020528 4e-06 0.0 12.109053 -3.735716 -2.866782 1e-06 -0.0 -0.0 1.291985 -1.928549 -1.498089 14.800129 0.567469 3.865608 14.242574 -1.341736 -6.660655 19.631973 0.143926 -0.648242 49.993862 -0.909474 -6.813665 0.353029 -1.51115 -0.03194 20.222795 3.684312 2.316632 18.787277 6e-06 1e-06 10.751633 -0.479867 1.397906 -0.0 -0.0 1e-06 3.273807 0.305947 -0.580111 21.486818 11.830376 2.266135 8.16293 2e-06 0.0 18.399082 -3.798982 -4.940574 3e-06 0.0 -1e-06 1.327282 7.755543 0.454804 0.00283 -0.171143 1.989139 -2.820197 -4.44308 -2.485215 1.634207 -2.030747 -0.774014 -0.0 0.0 2e-06 -3.00208 -3.898492 -0.430667 -0.021035 -0.198018 4.281375 4.086584 -2.636462 -5.984077 -1.407217 1.155528 -0.59365 0.0 -0.0 -1e-06 
